<svg width="100" height="94" viewBox="0 0 100 94" fill="none" xmlns="http://www.w3.org/2000/svg">
<circle r="5" transform="matrix(-1 0 0 1 95 5)" fill="#F7941D"/>
<circle r="5" transform="matrix(-1 0 0 1 95 47)" fill="#F7941D"/>
<circle r="5" transform="matrix(-1 0 0 1 95 89)" fill="#F7941D"/>
<circle r="5" transform="matrix(-1 0 0 1 65 5)" fill="#F7941D"/>
<circle r="5" transform="matrix(-1 0 0 1 65 47)" fill="#F7941D"/>
<circle r="5" transform="matrix(-1 0 0 1 65 89)" fill="#F7941D"/>
<circle r="5" transform="matrix(-1 0 0 1 35 5)" fill="#F7941D"/>
<circle r="5" transform="matrix(-1 0 0 1 35 47)" fill="#F7941D"/>
<circle r="5" transform="matrix(-1 0 0 1 35 89)" fill="#F7941D"/>
<circle r="5" transform="matrix(-1 0 0 1 5 5)" fill="#F7941D"/>
<circle r="5" transform="matrix(-1 0 0 1 5 47)" fill="#F7941D"/>
<circle r="5" transform="matrix(-1 0 0 1 5 89)" fill="#F7941D"/>
</svg>
